<svg xmlns="http://www.w3.org/2000/svg" width="48" height="48" viewBox="0 0 48 48">
    <defs>
        <clipPath id="clip-path">
            <path d="M0 0H32V32H0z" class="cls-1"/>
        </clipPath>
        <style>
            .cls-1{fill:none}
        </style>
    </defs>
    <g id="buttons_square_gray" transform="translate(-275 -428)">
        <path id="bg" d="M0 0H48V48H0z" class="cls-1" transform="translate(275 428)"/>
        <g id="icons_back-light" clip-path="url(#clip-path)" transform="translate(283 436)">
            <path id="bg-2" d="M0 0H32V32H0z" class="cls-1"/>
            <path id="icon" fill="#fff" d="M9.361 21.16L.642 11.906A1 1 0 0 1 0 10.972v-.389a1 1 0 0 1 .571-.9L9.361.349a1.08 1.08 0 0 1 1.591 0 1.248 1.248 0 0 1 0 1.689L3.844 9.583H23a1 1 0 0 1 1 1v.389a1 1 0 0 1-1 1H3.886l7.066 7.5a1.246 1.246 0 0 1 0 1.688 1.08 1.08 0 0 1-1.591 0z" transform="translate(4 5.231)"/>
        </g>
    </g>
</svg>
